<?xml version="1.0" encoding="utf-8"?>
<!-- Generator: Adobe Illustrator 24.3.0, SVG Export Plug-In . SVG Version: 6.00 Build 0)  -->
<svg version="1.1" id="Calque_1" xmlns="http://www.w3.org/2000/svg" xmlns:xlink="http://www.w3.org/1999/xlink" x="0px" y="0px"
	 viewBox="0 0 1166 175.1" style="enable-background:new 0 0 1166 175.1;" xml:space="preserve">
<style type="text/css">
	.st0{fill:none;stroke:#353B3D;stroke-width:4;stroke-miterlimit:10;}
	.st1{fill:#353B3D;}
</style>
<desc>Created with Sketch.</desc>
<g id="Symbols">
	<g id="logo_x2F_color">
		<g id="LOGO-DARK">
			<g id="Group-2">
				<g id="Group">
					<path id="Shape" class="st0" d="M76.6,104.7l-34.3,31.7c-2.9,2.7-7.5,3-10.7,0.7l-6-4.2c-2-1.5-3.4-3.7-3.6-6.4
						c-0.2-2.5,0.9-5.1,2.7-6.8l31.7-29.5l-7.8-5.4c0,0-29.3,4.1-37.5,1.4C1.5,83,0.9,69.1,6.7,61L41,12.4C46.8,4.3,60.2,0.1,66.4,8
						c5.3,6.8,11.4,35.6,11.4,35.6l31.9,22.1c11.4,7.9,14.3,23.6,6.3,35.1c-8,11.3-24.2,14.7-35.7,6.6L76.6,104.7z"/>
					<path id="Shape_1_" class="st0" d="M25.6,21c-6.5-4.6-15.5-2.9-20.1,3.5S2.6,39.9,9,44.5L25.6,21z"/>
				</g>
			</g>
			<g id="Group_1_" transform="translate(20.225664, 0.000000)">
				<path id="Shape_2_" class="st1" d="M187.4,137.1c-4.6,0-8.4-3.5-8.4-8.4c0-4.7,3.8-8.4,8.4-8.4h4.4V85.5
					c0-10.8-4.3-18.1-16.2-18.1c-13.8,0-18.4,8.6-18.4,20.4v32.4h4.4c4.6,0,8.4,3.7,8.4,8.4s-3.8,8.4-8.4,8.4h-28.8
					c-4.6,0-8.4-3.5-8.4-8.4c0-4.7,3.8-8.4,8.4-8.4h4.4V20h-4.4c-4.6,0-8.4-3.5-8.4-8.4c0-4.7,3.8-8.4,8.4-8.4h15
					c5.5,0,9.4,4.9,9.4,10.1v47.1c3.6-5.4,11.3-11.3,23.5-11.3c25.1,0,31.1,16.4,31.1,32.7v38.5h4.4c4.6,0,8.4,3.7,8.4,8.4
					s-3.8,8.4-8.4,8.4H187.4z"/>
				<path id="Shape_3_" class="st1" d="M292.2,137.1c-4.9,0-9-3.7-9-8.4c-4.9,8.1-13.1,11-24.2,11c-18.1,0-30-11.5-30-28.5
					c0-17.6,13.8-26.7,29.9-26.7H283v-3.4c0-8.4-6.1-14.2-16.7-14.2c-8.2,0-13.8,3.7-18.4,7.1c-1.9,1.4-3.2,1.9-5.5,1.9
					c-4.8,0-8.7-3.9-8.7-8.8c0-2,0.7-4.4,2.4-6.2c5.1-5.9,14.3-12.2,30.2-12.2c22.9,0,36.5,11.5,36.5,31.6v39.8h4.4
					c4.6,0,8.4,3.7,8.4,8.4s-3.8,8.4-8.4,8.4h-15V137.1z M264.2,122.6c9.7,0,18.8-6.4,18.8-17v-5.2h-21.7c-8.2,0-12.6,3.9-12.6,10.8
					C248.8,118.2,253.8,122.6,264.2,122.6L264.2,122.6z"/>
				<path id="Shape_4_" class="st1" d="M339.9,51.4c5.5,0,9.9,3,9.9,8.6c2.7-4.7,11.4-11.3,21.8-11.3c24.2,0,37.5,14.5,37.5,45.2
					s-13.5,45.4-37.5,45.4c-9.2,0-17.4-3-21.8-8.1v26.5h7.3c4.6,0,8.4,3.7,8.4,8.4c0,4.7-3.8,8.4-8.4,8.4h-31.7
					c-4.6,0-8.4-3.7-8.4-8.4c0-4.7,3.8-8.4,8.4-8.4h4.4V68.1h-4.4c-4.6,0-8.4-3.7-8.4-8.4s3.8-8.4,8.4-8.4h14.5V51.4z M388.9,94.3
					c0-18.7-6.8-28-19.8-28c-13,0-19.8,9.5-19.8,28c0,18.4,6.8,27.8,19.8,27.8C382.1,122.1,388.9,112.7,388.9,94.3L388.9,94.3z"/>
				<path id="Shape_5_" class="st1" d="M438.6,51.4c5.5,0,9.9,3,9.9,8.6c2.7-4.7,11.4-11.3,21.8-11.3c24.2,0,37.5,14.5,37.5,45.2
					s-13.5,45.4-37.5,45.4c-9.2,0-17.4-3-21.8-8.1v26.5h7.3c4.6,0,8.4,3.7,8.4,8.4c0,4.7-3.8,8.4-8.4,8.4h-31.7
					c-4.6,0-8.4-3.7-8.4-8.4c0-4.7,3.8-8.4,8.4-8.4h4.4V68.1h-4.4c-4.6,0-8.4-3.7-8.4-8.4s3.8-8.4,8.4-8.4h14.5V51.4z M487.5,94.3
					c0-18.7-6.8-28-19.8-28c-13,0-19.8,9.5-19.8,28c0,18.4,6.8,27.8,19.8,27.8C480.7,122.1,487.5,112.7,487.5,94.3L487.5,94.3z"/>
				<path id="Shape_6_" class="st1" d="M594.2,68.5l-32.4,74.9c-8,18.4-19.8,31.7-38.2,31.7c-5.3,0-9.6-3.9-9.6-9.5
					c0-5.4,4.3-9.5,9.6-9.5c11.8,0,17.4-9.6,23.4-25.1l-26.6-62.6h-2c-4.6,0-8.4-3.5-8.4-8.4c0-4.7,3.8-8.4,8.4-8.4h25.1
					c4.6,0,8.4,3.7,8.4,8.4s-3.8,8.4-8.4,8.4h-1.9l15.7,40.3l15.5-40.3H571c-4.6,0-8.4-3.5-8.4-8.4c0-4.7,3.8-8.4,8.4-8.4H596
					c4.6,0,8.4,3.7,8.4,8.4s-3.8,8.4-8.4,8.4H594.2L594.2,68.5z"/>
				<path id="Shape_7_" class="st1" d="M651,11.2c0-4.7,3.8-8.4,8.4-8.4h14.5c5.5,0,9.9,4.6,9.9,10.1v107.2h4.6
					c4.6,0,8.4,3.7,8.4,8.4s-3.8,8.4-8.4,8.4h-14.5c-4.4,0-8.2-2.9-9.2-6.4c-5.8,6.1-12.8,8.9-21.2,8.9c-22.7,0-37.4-14.5-37.4-45.2
					s14.2-45.4,37.5-45.4c8.9,0,16.5,3.7,20.3,7.6V19.9h-4.6C654.7,19.9,651,16,651,11.2 M645.7,66.1c-12.6,0-19.8,9.5-19.8,28
					c0,18.4,6.8,27.8,19.4,27.8c11.3,0,18.6-6.4,18.6-16.7V75.7C663.9,75.7,656.8,66.1,645.7,66.1"/>
				<path id="Shape_8_" class="st1" d="M703.2,93.9c0-28.9,14.8-45.1,39.9-45.1c31.2,0,36.9,24.5,36.9,37.5c0,6.9,0,15-11.3,15
					h-45.6c0,13.5,9.4,19.7,21.7,19.7c8.2,0,13.8-2.9,18.3-5.9c2-1.4,3.6-2,6-2c4.8,0,8.7,3.9,8.7,8.8c0,3-1.5,5.4-3.1,6.9
					c-3.1,3-13,10.3-29.7,10.3C719,139.5,703.2,125.3,703.2,93.9 M743.1,66.1c-10.7,0-18.4,6.2-19.4,18.2h36.5
					C760.3,75.2,755,66.1,743.1,66.1"/>
				<path id="Shape_9_" class="st1" d="M796.2,137.1c-4.6,0-8.4-3.5-8.4-8.4c0-4.7,3.8-8.4,8.4-8.4h4.4V68.6h-4.4
					c-4.6,0-8.4-3.5-8.4-8.4c0-4.7,3.8-8.4,8.4-8.4h15c5.3,0,9.4,3.2,9.4,8.6c3.6-5.4,11.3-11.3,23.5-11.3
					c15.2,0,22.7,4.9,27.3,12.3c6-8.1,13.8-12.3,26.4-12.3c25.1,0,31.9,16.4,31.9,32.7v38.5h4.4c4.6,0,8.4,3.7,8.4,8.4
					s-3.8,8.4-8.4,8.4h-28.8c-4.6,0-8.4-3.5-8.4-8.4c0-4.7,3.8-8.4,8.4-8.4h4.4V85.5c0-10.8-4.3-18.1-16.2-18.1
					c-13.3,0-18.4,7.4-18.4,17.9v34.9h4.4c4.6,0,8.4,3.7,8.4,8.4s-3.8,8.4-8.4,8.4h-28.8c-4.6,0-8.4-3.5-8.4-8.4
					c0-4.7,3.8-8.4,8.4-8.4h4.4V85.5c0-10.8-4.3-18.1-16.2-18.1c-13.8,0-18.4,8.6-18.4,20.3v32.6h4.4c4.6,0,8.4,3.7,8.4,8.4
					s-3.8,8.4-8.4,8.4H796.2z"/>
				<path id="Shape_10_" class="st1" d="M955,137.1c-4.6,0-8.4-3.5-8.4-8.4c0-4.7,3.8-8.4,8.4-8.4h4.4V68.6H955
					c-4.6,0-8.4-3.5-8.4-8.4c0-4.7,3.8-8.4,8.4-8.4h15c6,0,9.4,4.4,9.4,10.1v58.4h4.4c4.6,0,8.4,3.7,8.4,8.4s-3.8,8.4-8.4,8.4H955z
					 M968.8,39.8c-7.5,0-11.8-4.6-11.8-11.8c0-8.6,4.3-12.5,11.8-12.5c7.7,0,11.9,3.7,11.9,12.5C980.8,35.2,976.7,39.8,968.8,39.8
					L968.8,39.8z"/>
				<path id="Shape_11_" class="st1" d="M998.7,94.1c0-30.7,15.2-45.2,40.1-45.2c17.1,0,27,8.6,30,13c1.5,2,2,3.5,2,5.9
					c0,5.1-3.9,9.1-8.9,9.1c-2.9,0-5.1-1.5-6.8-3.2c-2.4-2.5-7.2-7.4-16.4-7.4c-13,0-20,10.1-20,27.8c0,18.1,7,28,20,28
					c8.5,0,14-4.4,18.3-7.6c2-1.5,3.9-1.9,5.5-1.9c4.9,0,8.9,3.9,8.9,9.1c0,2.4-0.9,4.9-3.1,6.9c-4.3,3.9-14.3,10.8-29.5,10.8
					C1013.8,139.5,998.7,124.8,998.7,94.1"/>
				<path id="Shape_12_" class="st1" d="M1111.3,66.6c-6.8,0-10.9,2.5-10.9,7.1c0,14,45.4,7.6,45.4,38.6c0,17.7-14.8,26.8-33.8,26.8
					c-15.9,0-28-7.4-32.6-13.2c-1.5-1.9-2.2-3.5-2.2-5.9c0-4.9,4.1-9.1,8.9-9.1c1.9,0,3.8,0.5,5.8,2.2c4.9,4.2,11.1,7.8,20.3,7.8
					c8.4,0,13.6-2.2,13.6-7.6c0-15.2-45.2-7.4-45.2-39.3c0-17,13.8-25.3,30.9-25.3c13.1,0,24.7,5.1,29.9,11.6c1,1.5,1.9,2.9,1.9,5.6
					c0,4.9-4.1,9.1-8.9,9.1c-2.6,0-4.3-1.2-6.3-2.7C1123.9,69.6,1118.9,66.6,1111.3,66.6"/>
			</g>
		</g>
	</g>
</g>
</svg>
